<svg version="1.1" xmlns="http://www.w3.org/2000/svg" xmlns:xlink="http://www.w3.org/1999/xlink" width="143.28125" height="73.55469" viewBox="0,0,143.28125,73.55469"><g transform="translate(-168.24878,-142.94851)"><g data-paper-data="{&quot;isPaintingLayer&quot;:true}" fill-rule="nonzero" stroke-linecap="butt" stroke-linejoin="miter" stroke-miterlimit="10" stroke-dasharray="" stroke-dashoffset="0" style="mix-blend-mode: normal"><path d="M174.2644,211.07351c-3.08865,-3.67696 -3.51563,-2.99704 -3.51563,-11.71875c0,-14.2052 0,-34.85629 0,-42.1875c0,-5.37283 -0.89012,-4.96925 2.34375,-8.20313c3.23388,-3.23388 3.38515,-3.51563 9.375,-3.51563c15.45279,0 84.63856,0 113.67188,0c7.95099,0 6.56614,0.4396 10.54688,3.51563c3.98074,3.07603 2.34375,1.74335 2.34375,6.44531c0,7.46395 0,30.25787 0,45.11719c0,7.84374 0.70573,7.91809 -2.92969,11.71875c-3.63542,3.80066 -2.01134,1.75781 -9.96094,1.75781c-28.86724,0 -97.4062,0 -113.08593,0c-6.24986,0 -5.70042,0.74728 -8.78906,-2.92969z" fill="#ffffff" stroke="#000000" stroke-width="5"/><text transform="translate(202.07813,192.15344) scale(1.05339,1.05339)" font-size="40" xml:space="preserve" fill="#000000" fill-rule="nonzero" stroke="none" stroke-width="1" stroke-linecap="butt" stroke-linejoin="miter" stroke-miterlimit="10" stroke-dasharray="" stroke-dashoffset="0" font-family="Handwriting" font-weight="normal" text-anchor="start" style="mix-blend-mode: normal"><tspan x="0" dy="0">Play</tspan></text></g></g></svg>